<svg width="29" height="29" viewBox="0 0 29 29" fill="none" xmlns="http://www.w3.org/2000/svg">
<path d="M20.5415 2.41669H8.45817C5.12145 2.41669 2.4165 5.12163 2.4165 8.45835V20.5417C2.4165 23.8784 5.12145 26.5834 8.45817 26.5834H20.5415C23.8782 26.5834 26.5832 23.8784 26.5832 20.5417V8.45835C26.5832 5.12163 23.8782 2.41669 20.5415 2.41669Z" stroke="#F1B341" stroke-width="2" stroke-linecap="round" stroke-linejoin="round"/>
<path d="M19.3331 13.7388C19.4823 14.7444 19.3105 15.7715 18.8423 16.6739C18.374 17.5763 17.6332 18.308 16.7251 18.7651C15.817 19.2221 14.7879 19.3812 13.7842 19.2197C12.7805 19.0582 11.8533 18.5843 11.1344 17.8655C10.4155 17.1466 9.94165 16.2194 9.78014 15.2157C9.61863 14.2119 9.77772 13.1828 10.2348 12.2748C10.6919 11.3667 11.4236 10.6258 12.326 10.1576C13.2284 9.68937 14.2554 9.5176 15.2611 9.66673C16.2868 9.81884 17.2365 10.2968 17.9698 11.0301C18.703 11.7634 19.181 12.713 19.3331 13.7388Z" stroke="#F1B341" stroke-width="2" stroke-linecap="round" stroke-linejoin="round"/>
<path d="M21.146 7.85419H21.1588" stroke="#F1B341" stroke-width="2" stroke-linecap="round" stroke-linejoin="round"/>
</svg>
