<svg width="34" height="20" viewBox="0 0 34 20" fill="none" xmlns="http://www.w3.org/2000/svg">
<path fill-rule="evenodd" clip-rule="evenodd" d="M16.4898 19.6793H18.527C18.527 19.6793 19.1381 19.5778 19.4437 19.2733C19.7493 18.9689 19.7493 18.36 19.7493 18.36C19.7493 18.36 19.7493 15.7213 20.9716 15.3154C22.1939 14.9094 23.8237 17.954 25.4534 19.0704C26.6757 19.9837 27.5924 19.7808 27.5924 19.7808L32.0742 19.6793C32.0742 19.6793 34.417 19.5778 33.2965 17.6496C33.1947 17.5481 32.6854 16.3302 29.9352 13.7931C27.0831 11.1545 27.4906 11.6619 30.8519 7.09506C32.8891 4.35494 33.704 2.73117 33.5002 1.91929C33.2965 1.20889 31.7686 1.41186 31.7686 1.41186H26.6757C26.6757 1.41186 26.2683 1.31037 26.0645 1.51335C25.759 1.71632 25.6571 2.02077 25.6571 2.02077C25.6571 2.02077 24.8422 4.15197 23.8237 5.97871C21.5828 9.73368 20.666 9.93665 20.3604 9.73368C19.5456 9.22625 19.7493 7.501 19.7493 6.38466C19.7493 2.73117 20.3605 1.20889 18.6289 0.802946C18.1196 0.70146 17.7121 0.599976 16.2861 0.599976C14.4526 0.599976 12.9248 0.599975 12.1099 1.00592C11.4987 1.31037 11.0913 1.91929 11.3969 1.91929C11.7024 1.91929 12.5173 2.12226 12.9248 2.62969C13.3322 3.54306 13.3322 5.06534 13.3322 5.06534C13.3322 5.06534 13.6378 9.42922 12.6192 9.93665C11.9062 10.3426 10.9894 9.53071 8.95226 6.0802C7.93367 4.35494 7.1188 2.32523 7.1188 2.32523C7.1188 2.32523 7.01694 1.91929 6.71137 1.71632C6.40579 1.51335 5.8965 1.41186 5.8965 1.41186H1.10913C1.10913 1.41186 0.396118 1.41186 0.0905412 1.71632C-0.113176 2.02077 0.0905412 2.5282 0.0905412 2.5282C0.0905412 2.5282 3.85932 11.256 8.13739 15.7213C12.1099 19.9837 16.4898 19.6793 16.4898 19.6793Z" fill="#F1B341"/>
</svg>
